<svg width="180" height="180" viewBox="0 0 180 180" xmlns="http://www.w3.org/2000/svg">
  <defs>
    <linearGradient id="bgGrad" x1="0%" y1="0%" x2="100%" y2="100%">
      <stop offset="0%" style="stop-color:#4CAF50"/>
      <stop offset="100%" style="stop-color:#2E7D32"/>
    </linearGradient>
    <linearGradient id="chickenGrad" x1="0%" y1="0%" x2="100%" y2="100%">
      <stop offset="0%" style="stop-color:#FFFFFF"/>
      <stop offset="100%" style="stop-color:#F5F5F5"/>
    </linearGradient>
    <filter id="glow" x="-20%" y="-20%" width="140%" height="140%">
      <feDropShadow dx="0" dy="2" stdDeviation="3" flood-color="#FFFFFF" flood-opacity="0.5"/>
    </filter>
  </defs>
  
  <!-- Background -->
  <rect width="180" height="180" rx="40" fill="url(#bgGrad)"/>
  
  <!-- Chicken Body -->
  <ellipse cx="90" cy="110" rx="35" ry="40" fill="url(#chickenGrad)" filter="url(#glow)"/>
  
  <!-- Chicken Head -->
  <circle cx="90" cy="70" r="25" fill="url(#chickenGrad)" filter="url(#glow)"/>
  
  <!-- Comb -->
  <path d="M70 45 Q75 35 80 45 Q85 35 90 45 Q95 35 100 45 Q105 35 110 45 Q90 60 70 45" fill="#FF6B6B"/>
  
  <!-- Beak -->
  <path d="M60 70 L80 75 L70 85 Z" fill="#FFD93D"/>
  
  <!-- Eye -->
  <circle cx="80" cy="65" r="6" fill="#2E2E2E"/>
  <circle cx="82" cy="63" r="2" fill="#FFFFFF"/>
  
  <!-- Wing -->
  <ellipse cx="115" cy="100" rx="15" ry="25" fill="#F0F0F0" opacity="0.8"/>
  
  <!-- Legs -->
  <rect x="80" y="145" width="6" height="20" fill="#FFD93D"/>
  <rect x="94" y="145" width="6" height="20" fill="#FFD93D"/>
  
  <!-- Feet -->
  <path d="M75 165 L90 165 M80 165 L80 170 M85 165 L85 170" stroke="#FFD93D" stroke-width="3"/>
  <path d="M89 165 L104 165 M94 165 L94 170 M99 165 L99 170" stroke="#FFD93D" stroke-width="3"/>
</svg>
