<svg xmlns="http://www.w3.org/2000/svg" style="display: none;">
  <defs>
    <!-- Chicken Icon -->
    <symbol id="chicken-icon" viewBox="0 0 100 100">
      <defs>
        <linearGradient id="chickenGrad" x1="0%" y1="0%" x2="100%" y2="100%">
          <stop offset="0%" style="stop-color:#4CAF50"/>
          <stop offset="100%" style="stop-color:#81C784"/>
        </linearGradient>
      </defs>
      <ellipse cx="50" cy="60" rx="20" ry="25" fill="url(#chickenGrad)"/>
      <circle cx="50" cy="40" r="15" fill="url(#chickenGrad)"/>
      <path d="M40 35 Q45 25 50 35 Q55 25 60 35" fill="#F44336"/>
      <path d="M35 40 L40 45 L40 35 Z" fill="#FF8F00"/>
      <circle cx="45" cy="35" r="2" fill="#1A1A1A"/>
      <ellipse cx="40" cy="50" rx="2" ry="4" fill="#F44336"/>
      <rect x="45" y="80" width="2" height="12" fill="#FF8F00"/>
      <rect x="53" y="80" width="2" height="12" fill="#FF8F00"/>
    </symbol>

    <!-- Training Icon -->
    <symbol id="training-icon" viewBox="0 0 100 100">
      <defs>
        <linearGradient id="trainingGrad" x1="0%" y1="0%" x2="100%" y2="100%">
          <stop offset="0%" style="stop-color:#FF8F00"/>
          <stop offset="100%" style="stop-color:#FFC107"/>
        </linearGradient>
      </defs>
      <rect x="20" y="30" width="60" height="40" rx="5" fill="url(#trainingGrad)"/>
      <rect x="25" y="35" width="50" height="30" fill="#FFFFFF"/>
      <line x1="30" y1="45" x2="70" y2="45" stroke="#4CAF50" stroke-width="2"/>
      <line x1="30" y1="55" x2="60" y2="55" stroke="#4CAF50" stroke-width="2"/>
      <circle cx="50" cy="20" r="8" fill="#4CAF50"/>
      <path d="M45 15 Q50 10 55 15 Q50 20 45 15" fill="#2E7D32"/>
    </symbol>

    <!-- Money/Savings Icon -->
    <symbol id="money-icon" viewBox="0 0 100 100">
      <defs>
        <linearGradient id="moneyGrad" x1="0%" y1="0%" x2="100%" y2="100%">
          <stop offset="0%" style="stop-color:#FFC107"/>
          <stop offset="100%" style="stop-color:#FF8F00"/>
        </linearGradient>
      </defs>
      <circle cx="50" cy="50" r="30" fill="url(#moneyGrad)"/>
      <circle cx="50" cy="50" r="25" fill="#FFFFFF"/>
      <text x="50" y="58" text-anchor="middle" font-family="serif" font-size="20" font-weight="bold" fill="#FF8F00">B</text>
      <path d="M30 30 Q35 25 40 30 L35 35 Z" fill="url(#moneyGrad)"/>
      <path d="M60 30 Q65 25 70 30 L65 35 Z" fill="url(#moneyGrad)"/>
      <path d="M30 70 Q35 75 40 70 L35 65 Z" fill="url(#moneyGrad)"/>
      <path d="M60 70 Q65 75 70 70 L65 65 Z" fill="url(#moneyGrad)"/>
    </symbol>

    <!-- House/Home Icon -->
    <symbol id="house-icon" viewBox="0 0 100 100">
      <defs>
        <linearGradient id="houseGrad" x1="0%" y1="0%" x2="100%" y2="100%">
          <stop offset="0%" style="stop-color:#81C784"/>
          <stop offset="100%" style="stop-color:#4CAF50"/>
        </linearGradient>
      </defs>
      <path d="M20 50 L50 20 L80 50 L80 80 L20 80 Z" fill="url(#houseGrad)"/>
      <rect x="35" y="60" width="12" height="20" fill="#2E7D32"/>
      <rect x="53" y="60" width="12" height="12" fill="#2E7D32"/>
      <path d="M15 50 L50 15 L85 50" stroke="#2E7D32" stroke-width="3" fill="none"/>
      <circle cx="58" cy="66" r="1" fill="#FFFFFF"/>
    </symbol>

    <!-- Egg Icon -->
    <symbol id="egg-icon" viewBox="0 0 100 100">
      <defs>
        <linearGradient id="eggGrad" x1="0%" y1="0%" x2="100%" y2="100%">
          <stop offset="0%" style="stop-color:#FFFFFF"/>
          <stop offset="100%" style="stop-color:#F5F5F5"/>
        </linearGradient>
      </defs>
      <ellipse cx="50" cy="55" rx="20" ry="30" fill="url(#eggGrad)" stroke="#4CAF50" stroke-width="2"/>
      <ellipse cx="45" cy="45" rx="3" ry="4" fill="#E0E0E0" opacity="0.5"/>
    </symbol>

    <!-- Partnership Icon -->
    <symbol id="partnership-icon" viewBox="0 0 100 100">
      <defs>
        <linearGradient id="partnerGrad" x1="0%" y1="0%" x2="100%" y2="100%">
          <stop offset="0%" style="stop-color:#2E7D32"/>
          <stop offset="100%" style="stop-color:#4CAF50"/>
        </linearGradient>
      </defs>
      <circle cx="30" cy="35" r="12" fill="url(#partnerGrad)"/>
      <circle cx="70" cy="35" r="12" fill="url(#partnerGrad)"/>
      <path d="M20 60 Q30 50 40 60 L40 80 L20 80 Z" fill="url(#partnerGrad)"/>
      <path d="M60 60 Q70 50 80 60 L80 80 L60 80 Z" fill="url(#partnerGrad)"/>
      <path d="M35 65 Q50 55 65 65" stroke="#FF8F00" stroke-width="3" fill="none"/>
      <circle cx="50" cy="60" r="3" fill="#FF8F00"/>
    </symbol>

    <!-- Growth/Plant Icon -->
    <symbol id="growth-icon" viewBox="0 0 100 100">
      <defs>
        <linearGradient id="growthGrad" x1="0%" y1="100%" x2="0%" y2="0%">
          <stop offset="0%" style="stop-color:#2E7D32"/>
          <stop offset="50%" style="stop-color:#4CAF50"/>
          <stop offset="100%" style="stop-color:#81C784"/>
        </linearGradient>
      </defs>
      <rect x="48" y="60" width="4" height="30" fill="#2E7D32"/>
      <ellipse cx="40" cy="50" rx="8" ry="15" fill="url(#growthGrad)" transform="rotate(-30 40 50)"/>
      <ellipse cx="60" cy="50" rx="8" ry="15" fill="url(#growthGrad)" transform="rotate(30 60 50)"/>
      <ellipse cx="50" cy="35" rx="10" ry="18" fill="url(#growthGrad)"/>
      <circle cx="50" cy="25" r="6" fill="#FFC107"/>
      <path d="M45 20 L50 15 L55 20 L50 25 Z" fill="#FF8F00"/>
    </symbol>

    <!-- Women Empowerment Icon -->
    <symbol id="women-icon" viewBox="0 0 100 100">
      <defs>
        <linearGradient id="womenGrad" x1="0%" y1="0%" x2="100%" y2="100%">
          <stop offset="0%" style="stop-color:#E91E63"/>
          <stop offset="100%" style="stop-color:#F48FB1"/>
        </linearGradient>
      </defs>
      <circle cx="50" cy="30" r="15" fill="url(#womenGrad)"/>
      <path d="M35 50 Q50 45 65 50 L65 75 L35 75 Z" fill="url(#womenGrad)"/>
      <circle cx="50" cy="85" r="8" fill="#4CAF50"/>
      <path d="M45 80 Q50 75 55 80 Q50 85 45 80" fill="#2E7D32"/>
      <circle cx="35" cy="40" r="3" fill="#FFC107"/>
      <circle cx="65" cy="40" r="3" fill="#FFC107"/>
    </symbol>

    <!-- Impact/Star Icon -->
    <symbol id="impact-icon" viewBox="0 0 100 100">
      <defs>
        <linearGradient id="impactGrad" x1="0%" y1="0%" x2="100%" y2="100%">
          <stop offset="0%" style="stop-color:#FFC107"/>
          <stop offset="100%" style="stop-color:#FF8F00"/>
        </linearGradient>
      </defs>
      <path d="M50 10 L60 35 L85 35 L67 52 L75 77 L50 62 L25 77 L33 52 L15 35 L40 35 Z" fill="url(#impactGrad)"/>
      <circle cx="50" cy="50" r="15" fill="#FFFFFF" opacity="0.3"/>
    </symbol>
  </defs>
</svg>
